<?xml version="1.0" encoding="UTF-8"?>
<svg xmlns="http://www.w3.org/2000/svg" viewBox="0 0 140 100" fill="#000" aria-label="Omani Rial">
  <!-- Top: stem with small triangular cap pointing down-right -->
  <path d="M 78 4 L 110 4 L 90 28 L 78 28 Z"/>
  <!-- Main curl/hook (terminates flat on the right) -->
  <path d="M 84 28
           L 110 28
           C 128 28, 138 42, 138 58
           C 138 73, 124 84, 104 84
           L 24 84
           L 40 64
           L 100 64
           C 108 64, 113 61, 113 55
           C 113 49, 108 46, 100 46
           L 70 46 Z"/>
  <!-- First diagonal bar -->
  <path d="M 4 70 L 130 70 L 116 86 L 0 86 Z" transform="translate(0,8)"/>
  <!-- Second diagonal bar -->
  <path d="M 12 86 L 138 86 L 124 100 L 8 100 Z" transform="translate(0,-2)"/>
</svg>
